<?xml version="1.0" standalone="no"?>
<!DOCTYPE svg PUBLIC "-//W3C//DTD SVG 20010904//EN"
 "http://www.w3.org/TR/2001/REC-SVG-20010904/DTD/svg10.dtd">
<svg version="1.0" xmlns="http://www.w3.org/2000/svg"
 width="512.000000pt" height="512.000000pt" viewBox="0 0 512.000000 512.000000"
 preserveAspectRatio="xMidYMid meet">
<metadata>
Created by potrace 1.14, written by Peter Selinger 2001-2017
</metadata>
<g transform="translate(0.000000,512.000000) scale(0.100000,-0.100000)"
fill="#000000" stroke="none">
<path d="M2110 4062 c-19 -9 -42 -30 -51 -47 -18 -31 -559 -1891 -559 -1920 0
-36 30 -74 68 -85 25 -8 146 -10 367 -8 327 3 330 3 363 26 17 13 36 31 42 41
19 36 553 1897 552 1926 -1 20 -11 39 -32 58 l-30 27 -343 0 c-306 0 -346 -2
-377 -18z"/>
<path d="M2850 3113 c-35 -13 -71 -60 -89 -117 -63 -195 -531 -1837 -531
-1864 0 -22 9 -41 25 -57 l24 -25 361 0 360 0 36 33 c35 32 39 44 310 980 151
521 274 961 274 977 0 19 -10 36 -31 54 l-31 26 -346 -1 c-191 0 -354 -3 -362
-6z"/>
</g>
</svg>
