<svg width="208" height="50" viewBox="0 0 208 50" fill="none" xmlns="http://www.w3.org/2000/svg">
<g clip-path="url(#clip0_285_10505)">
<path fill-rule="evenodd" clip-rule="evenodd" d="M11.9795 34.2383H1.53545C1.29738 34.2383 1.06257 34.1833 0.849567 34.0777C0.636567 33.972 0.451215 33.8186 0.308152 33.6295C0.16509 33.4404 0.0682363 33.2209 0.0252441 32.9882C-0.0177482 32.7556 -0.00570247 32.5162 0.060431 32.2889L8.97939 1.6432C9.11728 1.16942 9.40637 0.752988 9.80312 0.45662C10.1999 0.160253 10.6828 0 11.1792 0H21.6233C21.8613 0 22.0961 0.0550049 22.3091 0.16067C22.5221 0.266334 22.7075 0.419763 22.8506 0.608836C22.9936 0.797909 23.0905 1.01745 23.1335 1.2501C23.1765 1.48276 23.1644 1.72216 23.0983 1.9494L14.1793 32.5951C14.0414 33.0689 13.7523 33.4854 13.3556 33.7817C12.9588 34.0781 12.4759 34.2383 11.9795 34.2383ZM24.0466 50.0398H13.6026C13.3645 50.0398 13.1297 49.9848 12.9167 49.8792C12.7037 49.7735 12.5183 49.6201 12.3753 49.431C12.2322 49.2419 12.1353 49.0224 12.0923 48.7897C12.0494 48.5571 12.0614 48.3177 12.1275 48.0905L21.0465 17.4447C21.1844 16.9709 21.4735 16.5545 21.8702 16.2581C22.267 15.9618 22.7499 15.8015 23.2463 15.8015H33.6904C33.9284 15.8015 34.1632 15.8565 34.3762 15.9622C34.5892 16.0678 34.7746 16.2213 34.9177 16.4103C35.0607 16.5994 35.1576 16.8189 35.2006 17.0516C35.2436 17.2843 35.2315 17.5237 35.1654 17.7509L26.2464 48.3966C26.1085 48.8704 25.8194 49.2869 25.4227 49.5832C25.0259 49.8796 24.543 50.0398 24.0466 50.0398Z" fill="url(#paint0_linear_285_10505)"/>
<path d="M62.7158 34.2734C67.2823 34.2734 69.8382 32.0427 69.8382 29.1128C69.8382 22.6205 60.0918 24.6181 60.0918 22.2209C60.0918 21.322 61.1141 20.6228 62.6817 20.6228C64.6923 20.6228 66.5666 21.4552 67.5549 22.4873L69.2929 19.5907C67.6572 18.3255 65.4421 17.3933 62.6476 17.3933C58.3197 17.3933 55.9001 19.7572 55.9001 22.454C55.9001 28.7799 65.6806 26.6158 65.6806 29.2793C65.6806 30.2781 64.7946 31.0106 62.9203 31.0106C60.8756 31.0106 58.4219 29.9119 57.2292 28.8132L55.3549 31.7764C57.0929 33.3412 59.8532 34.2734 62.7158 34.2734Z" fill="black"/>
<path d="M88.4982 33.8739V22.454C88.4982 19.3243 86.7602 17.3933 83.1479 17.3933C80.4557 17.3933 78.411 18.6585 77.3546 19.8903V11.6667H73.0266V33.8739H77.3546V23.0533C78.1043 22.0878 79.4334 21.1555 81.1032 21.1555C82.9775 21.1555 84.1703 21.8547 84.1703 24.0854V33.8739H88.4982Z" fill="black"/>
<path d="M100.428 34.2734C105.881 34.2734 109.152 30.4113 109.152 25.8167C109.152 21.2554 105.881 17.3933 100.428 17.3933C95.0098 17.3933 91.7383 21.2554 91.7383 25.8167C91.7383 30.4113 95.0098 34.2734 100.428 34.2734ZM100.428 30.5112C97.7361 30.5112 96.2367 28.3471 96.2367 25.8167C96.2367 23.3196 97.7361 21.1555 100.428 21.1555C103.12 21.1555 104.654 23.3196 104.654 25.8167C104.654 28.3471 103.12 30.5112 100.428 30.5112Z" fill="black"/>
<path d="M121.769 34.2734C125.995 34.2734 129.062 31.1771 129.062 25.8167C129.062 20.4563 125.995 17.3933 121.769 17.3933C119.758 17.3933 117.952 18.2589 116.691 19.8238V17.7928H112.363V40H116.691V31.8097C118.02 33.4744 119.826 34.2734 121.769 34.2734ZM120.406 30.5112C119.008 30.5112 117.407 29.6788 116.691 28.68V22.9867C117.407 21.9546 119.008 21.1555 120.406 21.1555C122.893 21.1555 124.563 23.0533 124.563 25.8167C124.563 28.6134 122.893 30.5112 120.406 30.5112Z" fill="black"/>
<path d="M136.559 28.7133V23.02C137.275 21.9546 138.876 21.1555 140.274 21.1555C142.795 21.1555 144.465 23.0533 144.465 25.85C144.465 28.6467 142.795 30.5112 140.274 30.5112C138.876 30.5112 137.275 29.7454 136.559 28.7133ZM136.559 33.8739V31.8097C137.854 33.4078 139.66 34.2734 141.637 34.2734C145.794 34.2734 148.93 31.2104 148.93 25.85C148.93 20.5895 145.828 17.3933 141.637 17.3933C139.694 17.3933 137.854 18.2256 136.559 19.8571V11.6667H132.231V33.8739H136.559Z" fill="black"/>
<path d="M159.833 34.2734C165.285 34.2734 168.557 30.4113 168.557 25.8167C168.557 21.2554 165.285 17.3933 159.833 17.3933C154.414 17.3933 151.143 21.2554 151.143 25.8167C151.143 30.4113 154.414 34.2734 159.833 34.2734ZM159.833 30.5112C157.14 30.5112 155.641 28.3471 155.641 25.8167C155.641 23.3196 157.14 21.1555 159.833 21.1555C162.525 21.1555 164.058 23.3196 164.058 25.8167C164.058 28.3471 162.525 30.5112 159.833 30.5112Z" fill="black"/>
<path d="M185.631 33.8739L179.736 25.6169L185.256 17.7928H180.417L177.043 22.7536L173.636 17.7928H168.796L174.283 25.6169L168.456 33.8739H173.261L177.043 28.4469L180.792 33.8739H185.631Z" fill="black"/>
<path d="M194.244 34.2734C199.696 34.2734 202.968 30.4113 202.968 25.8167C202.968 21.2554 199.696 17.3933 194.244 17.3933C188.825 17.3933 185.554 21.2554 185.554 25.8167C185.554 30.4113 188.825 34.2734 194.244 34.2734ZM194.244 30.5112C191.551 30.5112 190.052 28.3471 190.052 25.8167C190.052 23.3196 191.551 21.1555 194.244 21.1555C196.936 21.1555 198.469 23.3196 198.469 25.8167C198.469 28.3471 196.936 30.5112 194.244 30.5112Z" fill="black"/>
</g>
<defs>
<linearGradient id="paint0_linear_285_10505" x1="17.6129" y1="0" x2="17.6129" y2="50.0398" gradientUnits="userSpaceOnUse">
<stop stop-color="#00A9FF"/>
<stop offset="1" stop-color="#2256FF"/>
</linearGradient>
<clipPath id="clip0_285_10505">
<rect width="208" height="50" fill="white"/>
</clipPath>
</defs>
</svg>
